<?xml version="1.0" encoding="UTF-8"?>
<svg version="1.1" xmlns="http://www.w3.org/2000/svg" width="400" height="240">
<path d="M0 0 C2.29561332 0.91106207 3.48185774 1.89787494 5.20727539 3.6555481 C5.80179504 4.25352203 6.3963147 4.85149597 7.0088501 5.46759033 C7.64119568 6.11855682 8.27354126 6.76952332 8.92504883 7.44021606 C9.58849304 8.11027679 10.25193726 8.78033752 10.93548584 9.47070312 C13.05900689 11.61762909 15.17215313 13.77441272 17.28442383 15.93240356 C19.38403378 18.0672889 21.48582506 20.19995668 23.59051514 22.32983398 C24.89841395 23.65445214 26.20319939 24.98215476 27.50421143 26.3135376 C30.53147602 29.38946057 33.60143597 32.34150207 36.87524414 35.15481567 C41.82280171 39.4244681 46.39776801 44.04588241 51.00317383 48.67849731 C51.82076172 49.49709229 52.63834961 50.31568726 53.48071289 51.15908813 C56.50137704 54.18494002 59.51764959 57.21517343 62.53442383 60.24490356 C72.68192383 70.42334106 72.68192383 70.42334106 83.03442383 80.80740356 C83.36442383 56.38740356 83.69442383 31.96740356 84.03442383 6.80740356 C86.34442383 8.78740356 88.65442383 10.76740356 91.03442383 12.80740356 C92.75503564 13.876102 94.47604272 14.9450212 96.22373962 15.96882629 C106.3412189 22.12162172 116.12257966 30.32541057 120.03442383 41.80740356 C120.81940515 47.5760503 120.77594786 53.20702979 120.53833008 59.01443481 C120.50635592 59.79923281 120.47438175 60.5840308 120.44143867 61.39261055 C120.22044673 66.33670025 119.92749009 71.27563962 119.62594223 76.21535873 C117.40562682 106.58258273 117.40562682 106.58258273 130.94848633 132.73709106 C134.90993435 137.14969328 139.15509264 141.19603047 143.59692383 145.11990356 C144.39921984 145.82894899 144.39921984 145.82894899 145.21772385 146.55231857 C151.43576673 151.99323298 157.90286717 157.04362379 164.56069946 161.93766785 C170.15108417 166.16309495 175.25520719 170.89806051 180.19067383 175.86599731 C181.06723633 176.74578247 181.94379883 177.62556763 182.84692383 178.53201294 C183.73379883 179.42726685 184.62067383 180.32252075 185.53442383 181.24490356 C186.45223633 182.16722778 187.37004883 183.089552 188.31567383 184.03982544 C190.55757438 186.29340255 192.79708982 188.54929432 195.03442383 190.80740356 C194.37442383 191.13740356 193.71442383 191.46740356 193.03442383 191.80740356 C184.79430252 186.41447865 176.71600168 180.80947762 168.65771484 175.150177 C163.53047475 171.55073881 158.39019587 167.97265647 153.22192383 164.43240356 C146.63796549 159.92139248 140.0833325 155.36913424 133.53442383 150.80740356 C127.04700084 146.288879 120.55522763 141.77764013 114.03442383 137.30740356 C106.50673487 132.14691239 99.01823101 126.93065994 91.52929688 121.71414185 C85.98121028 117.85145117 80.42370616 114.0035322 74.84692383 110.18240356 C68.0143734 105.50005534 61.23011486 100.75033019 54.44897461 95.993927 C49.39016437 92.44840296 44.31766235 88.92462493 39.22192383 85.43240356 C32.45288816 80.7930411 25.70910843 76.11789371 18.97192383 71.43240356 C17.50758911 70.41460815 17.50758911 70.41460815 16.01367188 69.37625122 C15.08079346 68.72704712 14.14791504 68.07784302 13.18676758 67.40896606 C12.29844238 66.79440552 11.41011719 66.17984497 10.49487305 65.54666138 C8.95341946 64.45702898 7.43042985 63.34023989 5.93725586 62.18533325 C2.84993488 59.53631291 2.84993488 59.53631291 -0.96459961 59.06350708 C-4.23851102 60.28063837 -6.94885497 62.36326277 -9.77807617 64.36990356 C-10.46385742 64.84879028 -11.14963867 65.327677 -11.85620117 65.82107544 C-13.38603407 66.88980756 -14.91409297 67.96108211 -16.44067383 69.03445435 C-20.11719146 71.61605085 -23.80690137 74.1785658 -27.49560547 76.7427063 C-29.48850249 78.12815061 -31.48084601 79.51439142 -33.47265625 80.90139771 C-38.95828129 84.72112194 -44.45229751 88.52771508 -49.96557617 92.30740356 C-60.33666375 99.41958409 -70.64664656 106.61987349 -80.96557617 113.80740356 C-103.52200557 129.51882139 -103.52200557 129.51882139 -113.83056641 136.58596802 C-119.72744479 140.63316943 -125.59669761 144.71974107 -131.46557617 148.80740356 C-138.56801959 153.75424159 -145.68010488 158.685645 -152.82006836 163.57815552 C-158.80696806 167.6859274 -164.75997592 171.84193802 -170.71557617 175.99490356 C-178.40734574 181.35661354 -186.11719823 186.67642099 -193.96557617 191.80740356 C-194.62557617 191.47740356 -195.28557617 191.14740356 -195.96557617 190.80740356 C-192.2701606 187.08705007 -188.57130535 183.3701613 -184.86938477 179.65628052 C-183.61357797 178.39548142 -182.35867453 177.1337818 -181.10473633 175.87112427 C-179.28995555 174.04405215 -177.4718228 172.22037073 -175.65307617 170.39724731 C-175.10377441 169.84278427 -174.55447266 169.28832123 -173.98852539 168.71705627 C-171.2080666 165.93620855 -168.37957291 163.27945249 -165.38549805 160.72952271 C-159.79530651 155.88833313 -154.64597232 150.59846433 -149.43769836 145.35469055 C-147.52181148 143.42588594 -145.60268345 141.50035754 -143.68273926 139.57559204 C-139.60751645 135.48901516 -135.53624899 131.39851209 -131.46557617 127.30740356 C-126.74352298 122.56164458 -122.01980548 117.81756692 -117.29182434 113.07771301 C-115.413207 111.19267581 -113.53765869 109.30462259 -111.66223145 107.41641235 C-106.60726218 102.33998046 -101.55783575 97.36902856 -96.10290527 92.71987915 C-91.35462915 88.4711361 -86.92640485 83.87399225 -82.43769836 79.35469055 C-80.52181148 77.42588594 -78.60268345 75.50035754 -76.68273926 73.57559204 C-72.60751645 69.48901516 -68.53624899 65.39851209 -64.46557617 61.30740356 C-59.74352298 56.56164458 -55.01980548 51.81756692 -50.29182434 47.07771301 C-48.413207 45.19267581 -46.53765869 43.30462259 -44.66223145 41.41641235 C-39.46295693 36.19518509 -34.26919689 31.06167852 -28.65527344 26.28115845 C-25.89995136 23.87796502 -23.3857055 21.25636695 -20.85620117 18.61990356 C-19.76173504 17.49823778 -18.66666632 16.3771597 -17.57104492 15.25662231 C-15.87761174 13.51962815 -14.18846188 11.77914109 -12.5090332 10.02859497 C-10.86518116 8.31847766 -9.20612655 6.62444407 -7.54370117 4.93240356 C-7.04259827 4.40235718 -6.54149536 3.87231079 -6.02520752 3.32620239 C-2.48266481 -0.24326322 -2.48266481 -0.24326322 0 0 Z M-3.60449219 18.34866333 C-4.30243896 19.05821167 -5.00038574 19.76776001 -5.71948242 20.49880981 C-6.49227539 21.27933716 -7.26506836 22.0598645 -8.0612793 22.86404419 C-9.67868328 24.50706027 -11.2958782 26.1502822 -12.9128418 27.79373169 C-16.50233913 31.4187393 -20.08908607 34.98013385 -23.96166992 38.30349731 C-28.71680564 42.38601018 -33.07180428 46.84310564 -37.46557617 51.30740356 C-42.47478086 56.39701283 -47.50580398 61.33744957 -52.92456055 65.98904419 C-56.95054511 69.57583044 -60.68479115 73.46593179 -64.46557617 77.30740356 C-69.47478086 82.39701283 -74.50580398 87.33744957 -79.92456055 91.98904419 C-83.95054511 95.57583044 -87.68479115 99.46593179 -91.46557617 103.30740356 C-96.60077633 108.52503069 -101.7319403 113.62142691 -107.35424805 118.31716919 C-109.20383839 119.91105605 -109.20383839 119.91105605 -110.96557617 122.80740356 C-107.27728729 121.14143733 -104.10043875 118.86169768 -100.84057617 116.49490356 C-100.23439453 116.05831421 -99.62821289 115.62172485 -99.00366211 115.17190552 C-96.988972 113.71981482 -94.97729242 112.26361073 -92.96557617 110.80740356 C-91.5360729 109.77589821 -90.10638158 108.74465341 -88.67651367 107.71365356 C-85.65028508 105.53081112 -82.62570661 103.34570836 -79.60229492 101.15896606 C-76.56564431 98.96289093 -73.52661057 96.77019032 -70.48510742 94.58084106 C-62.69573522 88.97092291 -54.93580647 83.32468235 -47.21557617 77.61990356 C-40.71492476 72.81678272 -34.17765754 68.07304694 -27.59057617 63.38943481 C-23.18246721 60.25414238 -18.79163803 57.09497692 -14.40307617 53.93240356 C-13.64051514 53.38447144 -12.8779541 52.83653931 -12.09228516 52.27200317 C-11.00669312 51.48901855 -11.00669312 51.48901855 -9.89916992 50.69021606 C-9.26035889 50.23018188 -8.62154785 49.77014771 -7.96337891 49.2961731 C-6.97446655 48.55923218 -6.97446655 48.55923218 -5.96557617 47.80740356 C-4.62148682 46.92302612 -4.62148682 46.92302612 -3.25024414 46.02078247 C-0.70876238 43.98150554 -0.70876238 43.98150554 -0.39794922 40.87478638 C-0.4241333 39.7645813 -0.45031738 38.65437622 -0.47729492 37.51052856 C-0.4934082 36.30525513 -0.50952148 35.09998169 -0.52612305 33.85818481 C-0.56801758 32.603927 -0.60991211 31.34966919 -0.65307617 30.05740356 C-0.67563477 28.787677 -0.69819336 27.51795044 -0.72143555 26.20974731 C-0.78036979 23.07444584 -0.86260538 19.94151761 -0.96557617 16.80740356 C-2.2191273 16.69322521 -2.2191273 16.69322521 -3.60449219 18.34866333 Z " fill="#181C21" transform="translate(199.965576171875,0.192596435546875)"/>
<path d="M0 0 C1.34529785 0.41137207 1.34529785 0.41137207 2.71777344 0.83105469 C31.55582391 9.72801313 58.7668359 22.44645838 84 39 C80.41030601 40.29508498 78.54531939 39.71013335 75.08984375 38.2265625 C74.1138623 37.81825195 73.13788086 37.40994141 72.13232422 36.98925781 C71.07803223 36.53905273 70.02374023 36.08884766 68.9375 35.625 C48.11788132 27.03200418 26.8845545 20.28409952 5 15 C4.13197754 14.7839209 3.26395508 14.5678418 2.36962891 14.34521484 C-24.03070269 7.78603387 -50.92136679 4.20789138 -78 2 C-79.13163574 1.90356201 -80.26327148 1.80712402 -81.42919922 1.70776367 C-92.65703269 0.84378827 -103.86918576 0.799077 -115.125 0.8125 C-116.14188904 0.81343658 -117.15877808 0.81437317 -118.20648193 0.81533813 C-182.39529864 0.94306393 -250.44328273 11.45373913 -308.98828125 38.85546875 C-312.17658291 40.06710609 -312.91151467 39.97428166 -316 39 C-232.65311042 -14.79006654 -129.06197129 -28.07631099 0 0 Z " fill="#181C21" transform="translate(316,200)"/>
<path d="M0 0 C6.27 0 12.54 0 19 0 C19 5.94 19 11.88 19 18 C12.73 18 6.46 18 0 18 C0 12.06 0 6.12 0 0 Z " fill="#181C21" transform="translate(190,135)"/>
<path d="M0 0 C6.27 0 12.54 0 19 0 C19 5.94 19 11.88 19 18 C12.73 18 6.46 18 0 18 C0 12.06 0 6.12 0 0 Z " fill="#181C21" transform="translate(161,135)"/>
<path d="M0 0 C6.27 0 12.54 0 19 0 C19 5.94 19 11.88 19 18 C12.73 18 6.46 18 0 18 C0 12.06 0 6.12 0 0 Z " fill="#181C21" transform="translate(190,108)"/>
<path d="M0 0 C6.27 0 12.54 0 19 0 C19 5.94 19 11.88 19 18 C12.73 18 6.46 18 0 18 C0 12.06 0 6.12 0 0 Z " fill="#181C21" transform="translate(161,108)"/>
<path d="M0 0 C5.94 0 11.88 0 18 0 C18 5.94 18 11.88 18 18 C12.06 18 6.12 18 0 18 C0 12.06 0 6.12 0 0 Z " fill="#181C21" transform="translate(219,135)"/>
<path d="M0 0 C5.94 0 11.88 0 18 0 C18 5.94 18 11.88 18 18 C12.06 18 6.12 18 0 18 C0 12.06 0 6.12 0 0 Z " fill="#181C21" transform="translate(219,108)"/>
</svg>
